<svg xmlns="http://www.w3.org/2000/svg" width="256" height="256"><path fill="#1976D2" fill-opacity=".016" fill-rule="evenodd" d="M0 128.004v128.004l128.25-.254 128.25-.254.254-127.75L257.008 0H0zm.485.496c0 70.4.119 99.053.265 63.672.146-35.38.146-92.98 0-128C.604 29.153.485 58.1.485 128.5"/><path fill="#1976D2" fill-opacity=".175" fill-rule="evenodd" d="M150 15.935c-5.187 1.584-10.801 5.075-13.976 8.691-3.728 4.245-6.969 10.784-7.002 14.124-.012 1.237-.584 2.253-1.272 2.257-.687.004-16.55.898-35.25 1.986-40.764 2.372-37.5 2.318-37.5.615 0-.765-2.012-3.629-4.471-6.364-10.193-11.338-26.149-13.161-38.662-4.419C4.312 38.103 0 46.498 0 55.928c0 21.053 22.649 35.434 41.034 26.055C43.172 80.892 45.087 80 45.292 80c.204 0 3.428 3.403 7.165 7.561l6.794 7.562-2.875 5.188c-2.496 4.503-2.876 6.247-2.876 13.189 0 6.946.38 8.685 2.881 13.199 1.585 2.859 3.94 6.194 5.235 7.41l2.354 2.211-4.664 5.59a3618.46 3618.46 0 0 1-5.365 6.42c-.386.457-2.796.119-5.356-.75-16.726-5.678-35.104 5.493-38.044 23.125-1.604 9.619 3.652 21.58 12.01 27.33 6.251 4.301 15.208 6.397 21.535 5.04 14.538-3.118 24.105-14.014 24.212-27.575.059-7.501-1.521-12.329-5.926-18.1l-3.444-4.511 5.698-6.49c4.12-4.693 6.137-6.296 7.286-5.79.873.384 4.588.903 8.254 1.153 8.223.56 14.975-1.479 20.47-6.183l3.918-3.353 9.973 7.047c5.485 3.875 26.313 18.502 46.285 32.504 28.743 20.152 36.165 25.799 35.609 27.091-5.7 13.247-3.328 25.535 6.663 34.518 18.529 16.659 48.166 3.808 48.166-20.886 0-11.255-7.135-22.053-17.526-26.523l-4.974-2.14.625-4.558c.344-2.507.625-13.212.625-23.789v-19.23l4.516-1.265c9.417-2.636 17.273-9.94 20.325-18.894 3.298-9.676.153-22.01-7.471-29.302-16.729-15.998-44.635-7.223-48.874 15.369l-.667 3.557-21.164.632c-11.641.348-31.145.924-43.342 1.279l-22.178.647-1.607-3.845c-.883-2.115-1.478-4.316-1.322-4.892.156-.575 7.603-7.961 16.548-16.413l16.263-15.368 5.044 2.17c13.74 5.911 30.545.053 37.185-12.964 3.722-7.296 4.443-14.053 2.291-21.456-2.198-7.561-10.549-16.314-17.975-18.839-5.094-1.732-13.204-2.074-17.572-.741m-1.522 6.936c-16.39 7.446-18.284 29.949-3.353 39.83 5.336 3.532 14.836 4.349 21.4 1.843 12.127-4.632 17.589-19.606 11.489-31.497-5.19-10.118-19.108-14.913-29.536-10.176M23.5 33.885C12.748 36.683 6 45.211 6 56c0 12.841 9.547 22.357 22.527 22.455 18.812.141 29.588-19.68 19.131-35.188-4.987-7.396-15.742-11.573-24.158-9.382m70 16.176c-15.4.98-29.687 1.817-31.75 1.861-3.69.077-3.75.142-3.75 4.043 0 4.716-2.465 12.447-5.198 16.301l-1.961 2.766 3.986 4.734c2.192 2.604 5.327 6.007 6.966 7.562l2.98 2.829 4.363-2.237c2.852-1.461 6.837-2.398 11.503-2.702 6.097-.399 7.92-.105 12.5 2.012 2.948 1.363 6.476 3.396 7.838 4.517l2.476 2.039 16.204-15.451 16.204-15.451-2.433-3.586c-1.339-1.972-2.954-5.321-3.589-7.442-1.075-3.589-1.405-3.846-4.747-3.716-1.976.077-16.192.942-31.592 1.921m128.924 34.858c-5.53 1.361-11.457 5.416-14.389 9.842-14.391 21.727 14.198 46.427 34.059 29.427 5.229-4.476 7.856-10.13 7.884-16.97.026-6.128-1.523-10.351-5.543-15.12-4.681-5.551-14.979-8.91-22.011-7.179M73.615 92.472c-7.914 2.821-14.625 12.447-14.609 20.956.009 5.447 2.039 10.616 5.811 14.799 13.557 15.037 38.33 7.108 39.98-12.797.607-7.311-1.722-13.185-7.245-18.275-6.488-5.981-15.402-7.724-23.937-4.683m83.885 21.583c-12.1.38-27.41.749-34.023.818l-12.022.127-1.307 5.621c-.719 3.091-.934 5.99-.477 6.441.456.451 21.304 15.198 46.329 32.769l45.5 31.948 2.677-1.906c4.357-3.101 11.096-5.827 14.465-5.851l3.141-.022.693-18.25c.381-10.037.543-20.905.359-24.149l-.335-5.9-4.906-1.426c-6.392-1.858-15.832-11.001-17.661-17.103l-1.25-4.172-9.591.182c-5.276.1-19.492.493-31.592.873M31.748 153.366c-16.108 6.01-20.411 26.136-8.09 37.831 8.943 8.487 24.879 7.79 32.986-1.444 4.196-4.78 5.659-9.654 5.176-17.246-.488-7.649-3.966-13.336-10.499-17.165-5.312-3.113-14.138-4.004-19.573-1.976M213 191.542c-8.335 3.735-13.434 11.72-13.384 20.958.05 9.131 4.602 16.296 12.767 20.098 11.133 5.184 23.18 1.647 29.434-8.641 3.065-5.043 3.292-5.995 2.988-12.547-.388-8.402-3.323-13.739-9.973-18.14-3.383-2.239-5.464-2.798-11.242-3.022-4.803-.186-8.219.232-10.59 1.294"/><path fill="#1976D2" fill-opacity=".758" fill-rule="evenodd" d="M149.499 16.328c-9.493 3.118-17.363 11.274-19.653 20.368-1.292 5.134 1.169 4.692-37.846 6.788-39.105 2.1-35.929 2.345-39.335-3.031-3.142-4.958-9.118-9.496-15.052-11.431-6.199-2.021-17.467-.884-22.923 2.314-16.044 9.402-19.435 29.833-7.21 43.431 6.32 7.029 12.562 9.546 22.434 9.046 4.671-.237 9.06-1.103 11.423-2.254l3.837-1.869 7.435 7.436 7.436 7.435-3.24 5.97c-5.811 10.708-4.077 23.697 4.308 32.274L64.237 136l-2.531 3.25a204.763 204.763 0 0 1-5.368 6.54l-2.838 3.29-6.737-1.68c-5.603-1.398-7.693-1.489-12.41-.542-7.559 1.518-13.832 5.348-17.689 10.8-4.338 6.134-5.501 9.748-5.578 17.342-.086 8.388 2.928 15.082 9.325 20.713 11.666 10.269 28.223 9.783 39.154-1.148 10.624-10.623 11.342-25.821 1.81-38.317l-2.524-3.309 5.312-6.547c5.01-6.175 5.483-6.501 8.324-5.737 1.657.445 6.388.799 10.513.785 8.02-.026 11.332-1.225 18.124-6.561l3.624-2.847 46.506 32.643 46.506 32.644-1.858 4.09c-2.311 5.088-2.469 14.57-.348 20.796 6.42 18.84 32.531 24.643 46.779 10.396 7.842-7.843 10.594-19.283 7.14-29.682-2.236-6.732-10.048-14.849-16.223-16.857L229 184.68v-15.686c0-8.628.292-19.806.65-24.84.598-8.422.817-9.155 2.75-9.164 4.08-.019 12.192-4.72 16.408-9.509 13.102-14.884 6.68-38.84-12.082-45.072-6.516-2.164-16.656-1.51-22.449 1.448-8.089 4.13-13.904 11.941-15.006 20.156l-.5 3.731-8.135.602c-4.475.331-24.336.897-44.136 1.258l-36 .656-1.62-4.612-1.619-4.613 17.087-15.927 17.087-15.927 4.003 2.043c5.608 2.86 15.005 3.454 21.345 1.348 6.613-2.197 13.901-8.699 16.851-15.034 5.029-10.799 2.233-25.058-6.4-32.638-7.448-6.539-19.291-9.345-27.735-6.572m-.999 6.061c-14.251 6.226-18.668 24.045-8.814 35.557 5.161 6.029 10.436 8.472 18.392 8.517 5.614.032 7.296-.407 11.474-2.989 9.068-5.607 13.618-17.369 10.442-26.993-1.63-4.937-7.51-11.346-12.494-13.615-4.734-2.156-14.59-2.404-19-.477M18.229 35.573C8.72 40.312 3.585 50.932 5.978 60.909c4.133 17.229 24.648 23.806 38.165 12.236 5.228-4.474 7.807-10.096 7.835-17.079.069-17.166-18.183-28.249-33.749-20.493M87 50.052c-15.675.981-28.758 1.821-29.073 1.866-.316.045-.639 2.573-.719 5.618-.14 5.308-2.336 11.537-5.63 15.964-1.394 1.874-1.026 2.471 5.855 9.51l7.343 7.509 4.362-2.198c9.447-4.761 21.434-3.82 29.469 2.312l4.562 3.483 5.165-4.771c2.842-2.624 10.188-9.512 16.325-15.308l11.16-10.537-3.66-7.722-3.659-7.722-6.5.106c-3.575.058-19.325.909-35 1.89m130.459 36.315c-8.655 4.03-13.476 11.511-13.437 20.851.072 17.317 18.07 28.022 33.873 20.147 12.663-6.31 16.653-22.338 8.305-33.365-3.731-4.928-6.052-6.693-11.128-8.459-6.219-2.164-11.749-1.905-17.613.826M78 90.985c-5.666 1.05-10.813 3.992-13.98 7.99-3.972 5.015-5.02 8.099-5.02 14.774 0 20.692 25.843 30.716 40.197 15.593 8.388-8.838 7.629-25.251-1.525-32.97-5.508-4.645-12.84-6.653-19.672-5.387m65.5 23.068c-12.65.376-25.093.744-27.65.816l-4.651.131-1.331 5.25c-.732 2.888-1.34 5.561-1.35 5.941-.01.38 2.457 2.426 5.482 4.547 3.025 2.121 22.825 16.018 44 30.883 21.175 14.865 39.717 27.82 41.205 28.788 2.643 1.722 2.781 1.703 6.068-.804 3.964-3.023 10.806-5.605 14.853-5.605H223v-24.5c0-22.944-.115-24.5-1.804-24.5-3.408 0-12.195-5.181-15.668-9.239-1.913-2.234-4.225-6.019-5.139-8.412L198.728 113l-16.114.184c-8.863.101-26.464.492-39.114.869M29.444 153.886c-8.494 3.858-14.259 14.195-13.192 23.656 2.074 18.401 25.811 26.811 39.139 13.867 5.469-5.312 7.042-8.978 7.038-16.409-.005-9.993-5.162-17.886-14.147-21.652-4.601-1.928-14-1.659-18.838.538m185.147 36.687c-11.867 4.348-17.95 16.392-14.519 28.748 1.356 4.881 7.284 11.471 12.428 13.813 4.781 2.178 14.201 2.437 18.782.518 11.094-4.649 16.686-16.372 13.324-27.934-1.269-4.367-2.656-6.477-6.574-9.999-7.128-6.409-15.173-8.175-23.441-5.146"/><path fill="#1976D2" fill-opacity=".96" fill-rule="evenodd" d="M150.811 16.433c-11.158 3.162-18.792 11.357-21.258 22.817-.521 2.425-1.049 2.75-4.462 2.75-3.853 0-47.686 2.456-62.214 3.485l-7.624.541-1.259-3.039c-1.881-4.542-10.298-11.595-16.161-13.542-7.169-2.382-16.025-1.554-22.793 2.13C1.876 38.739-3.244 54.806 3.345 68.273c2.949 6.027 6.449 9.516 13.039 12.998 5.611 2.965 18.279 3.118 24.116.292 2.2-1.065 4.275-1.965 4.611-2 .336-.034 3.826 3.379 7.755 7.586l7.143 7.649-2.755 5.315c-2.375 4.584-2.754 6.489-2.754 13.851 0 7.441.341 9.113 2.655 13.036 1.46 2.475 3.801 5.571 5.202 6.88l2.548 2.379-5.616 6.621c-3.089 3.641-5.88 6.6-6.203 6.576-.322-.024-2.611-.636-5.086-1.361-6.061-1.775-16.401-.956-21.628 1.713-13.869 7.082-19.241 24.866-11.614 38.446 10.963 19.518 40.042 19.161 49.716-.61 5.161-10.549 3.993-22.233-3.043-30.454l-3.316-3.874 3.113-3.908c1.713-2.149 4.422-5.316 6.021-7.037l2.908-3.128 4.671 1.449c8.22 2.548 20.066-.346 26.456-6.465 2.508-2.402 3.003-2.531 5-1.298 1.219.752 22.382 15.526 47.03 32.831 35.57 24.973 44.67 31.802 44.115 33.102-4.142 9.71-4.362 18.464-.647 25.667 10.839 21.013 40.069 20.997 50.995-.029 3.414-6.571 3.635-16.719.513-23.656-2.676-5.949-9.163-12.248-14.848-14.419L229 184.728V135.473l4.998-1.187c18.966-4.505 27.736-27.057 16.608-42.707-10.659-14.993-30.376-16.831-43.251-4.033-4.884 4.854-6.171 7.466-8.894 18.054-.193.749-9.78 1.311-30.122 1.765-16.411.366-36.162.945-43.89 1.285l-14.051.62-1.264-3.885c-.695-2.137-1.473-4.375-1.729-4.974-.255-.599 7.195-8.404 16.556-17.344l17.02-16.255 4.759 2.305c7.347 3.558 17.087 3.308 24.8-.635 20.931-10.701 20.315-40.367-1.04-50.066-6.515-2.959-12.869-3.633-18.689-1.983m1.183 4.501c-14.868 4.523-21.87 19.2-15.592 32.683 6.522 14.006 24.799 17.751 36.741 7.528 5.37-4.596 7.807-10.064 7.835-17.579.04-10.718-6.133-19.029-16.41-22.095-5.33-1.59-8.646-1.732-12.574-.537M19.5 34.389C8.538 39.178 2.731 51.695 6.161 63.142c4.083 13.63 21.657 20.245 34.387 12.944 20.941-12.012 12.249-43.204-11.994-43.047-3.33.022-7.404.629-9.054 1.35M91.25 49.3 57 51.342l-.006 4.579c-.007 6.038-1.458 11.01-4.536 15.546l-2.513 3.703 6.006 6.775c8.539 9.632 7.972 9.337 13.089 6.805 4.708-2.329 14.457-3.442 20.393-2.328 1.911.358 5.791 2.21 8.622 4.115 2.83 1.905 5.344 3.463 5.587 3.463.242 0 7.838-7.017 16.878-15.594l16.438-15.594-2.576-3.378c-1.417-1.858-3.142-5.303-3.834-7.656-.881-2.996-1.826-4.314-3.153-4.399-1.042-.067-17.307.798-36.145 1.921M218 85.592c-16.296 7.048-19.219 29.394-5.238 40.057 15.668 11.95 38.278.556 38.228-19.265-.011-4.569-3.724-12.965-7.108-16.072-6.322-5.807-18.313-7.993-25.882-4.72M75.994 90.876c-12.98 4.25-19.934 15.868-16.948 28.314 1.68 7.005 9.233 14.801 16.227 16.752 5.486 1.53 13.149.925 17.627-1.39 7.194-3.721 13.1-13.126 13.1-20.864 0-8.03-5.674-16.951-13.235-20.808-4.444-2.267-12.887-3.276-16.771-2.004M150 113.519c-21.725.652-39.553 1.252-39.618 1.333-.065.082-.379 1.836-.698 3.898-.319 2.063-.867 4.709-1.218 5.882-.564 1.886 4.503 5.744 43.948 33.464 24.521 17.233 45.618 31.96 46.881 32.726 2.085 1.265 2.748 1.107 7.199-1.716 2.697-1.71 7.514-3.649 10.705-4.308L223 183.6v-19.161c0-10.538.284-21.231.631-23.761.691-5.043 1.22-4.502-7.631-7.8-6.882-2.564-13.642-10.456-16.384-19.128-.436-1.379-1.566-1.715-5.335-1.584-2.629.092-22.556.7-44.281 1.353m-116.929 38.59c-6.131 1.861-11.699 6.503-14.471 12.067-9.516 19.095 7.888 38.807 28.784 32.602 5.39-1.601 13.094-9.236 14.527-14.397 2.42-8.714.485-17.562-5.149-23.546-5.585-5.932-16.29-8.971-23.691-6.726m181.066 38.26c-1.85.669-5.166 2.731-7.369 4.58-10.514 8.828-10.478 26.344.072 35.087 12.194 10.104 30.711 5.866 37.289-8.536 3.634-7.956 1.16-20.304-5.247-26.188-6.099-5.602-16.94-7.767-24.745-4.943"/></svg>