<svg viewBox="0 0 200 200" xmlns="http://www.w3.org/2000/svg">

  
  <!-- Foundation/building base -->
  <rect x="60" y="140" width="80" height="20" fill="#64748b" rx="2"/>
  
  <!-- Main building structure -->
  <rect x="70" y="80" width="60" height="60" fill="#3b82f6" rx="4"/>
  
  <!-- Building details/windows -->
  <rect x="80" y="90" width="12" height="12" fill="#ffffff" rx="1"/>
  <rect x="108" y="90" width="12" height="12" fill="#ffffff" rx="1"/>
  <rect x="80" y="110" width="12" height="12" fill="#ffffff" rx="1"/>
  <rect x="108" y="110" width="12" height="12" fill="#ffffff" rx="1"/>
  
  <!-- Tools/gear icons -->
  <circle cx="85" cy="50" r="8" fill="#fbbf24" stroke="#f59e0b" stroke-width="1"/>
  <path d="M85 46 L89 50 L85 54 L81 50 Z" fill="#f59e0b"/>
  
  <circle cx="115" cy="50" r="8" fill="#34d399" stroke="#059669" stroke-width="1"/>
  <rect x="111" y="46" width="8" height="8" fill="#059669" rx="1"/>
  
  <!-- Connection lines -->
  <line x1="85" y1="58" x2="85" y2="80" stroke="#94a3b8" stroke-width="2" stroke-dasharray="3,3"/>
  <line x1="115" y1="58" x2="115" y2="80" stroke="#94a3b8" stroke-width="2" stroke-dasharray="3,3"/>
  <line x1="100" y1="125" x2="100" y2="140" stroke="#94a3b8" stroke-width="2" stroke-dasharray="3,3"/>
  

</svg>